<?xml version="1.0" standalone="no"?>
<!DOCTYPE svg PUBLIC "-//W3C//DTD SVG 20010904//EN"
 "http://www.w3.org/TR/2001/REC-SVG-20010904/DTD/svg10.dtd">
<svg version="1.0" xmlns="http://www.w3.org/2000/svg"
 width="200.000000pt" height="158.000000pt" viewBox="0 0 200.000000 158.000000"
 preserveAspectRatio="xMidYMid meet">

<g transform="translate(0.000000,158.000000) scale(0.100000,-0.100000)"
fill="#000000" stroke="none">
<path d="M1090 1480 c0 -26 -34 -47 -100 -60 -82 -16 -100 -26 -116 -66 l-15
-37 -104 7 c-129 8 -130 7 -139 -111 -24 -339 -28 -475 -14 -489 11 -11 98
-19 358 -35 l345 -20 18 22 c10 12 17 38 17 63 0 22 7 144 15 270 7 125 11
234 8 241 -8 22 -27 25 -241 37 -150 9 -206 16 -209 25 -9 23 17 42 65 49 53
7 126 36 137 53 3 6 10 25 15 41 8 27 6 30 -16 30 -17 0 -24 -6 -24 -20z
m-284 -200 l54 0 0 -35 c0 -22 -5 -35 -13 -35 -22 0 -57 -44 -79 -101 -14 -36
-22 -85 -25 -149 -4 -84 -2 -99 17 -128 51 -82 196 -82 244 -1 56 94 12 322
-70 371 -24 14 -34 27 -34 44 0 21 5 24 36 24 78 0 379 -22 385 -28 7 -8 -23
-518 -32 -526 -5 -5 -651 32 -657 38 -1 2 4 111 13 242 8 132 15 252 15 268 0
28 0 29 46 22 26 -3 71 -6 100 -6z m74 -220 c18 0 20 7 20 56 0 71 15 68 54
-9 23 -46 28 -70 29 -134 1 -43 -2 -90 -6 -105 -17 -63 -129 -76 -176 -22 -22
26 -23 34 -18 114 7 100 19 147 50 186 l22 29 3 -58 c3 -49 6 -57 22 -57z"/>
<path d="M520 590 l0 -61 -34 6 c-77 15 -108 -29 -108 -156 0 -103 22 -153 69
-157 18 -2 41 2 52 7 13 7 22 8 26 1 3 -5 13 -10 21 -10 12 0 14 34 14 215 0
208 -1 215 -20 215 -18 0 -20 -7 -20 -60z m-19 -121 c15 -28 15 -149 0 -177
-14 -26 -43 -29 -62 -6 -17 21 -17 167 0 188 19 22 48 20 62 -5z"/>
<path d="M1750 585 c-1 -36 -1 -117 -1 -180 0 -198 -1 -185 21 -185 18 0 20 7
20 54 0 35 5 58 15 66 13 10 19 2 44 -54 26 -56 34 -66 56 -66 14 0 25 2 25 5
0 2 -18 44 -41 93 l-41 89 36 56 c42 65 44 80 14 75 -14 -2 -34 -21 -53 -50
-16 -25 -35 -55 -42 -65 -9 -14 -12 6 -12 105 -1 115 -2 122 -21 122 -18 0
-20 -7 -20 -65z"/>
<path d="M923 629 c-59 -17 -87 -91 -58 -153 13 -27 31 -42 74 -62 73 -34 91
-51 91 -84 0 -55 -70 -80 -110 -40 -11 11 -20 29 -20 40 0 15 -7 20 -25 20
-22 0 -25 -4 -25 -36 0 -26 8 -43 29 -65 25 -24 38 -29 80 -29 27 0 61 5 75
11 56 26 73 137 27 183 -12 11 -49 34 -84 51 -54 26 -62 34 -65 61 -4 39 16
56 60 52 26 -2 36 -10 48 -35 11 -23 22 -33 39 -33 22 0 23 3 18 37 -12 69
-79 105 -154 82z"/>
<path d="M110 425 l0 -206 113 3 c107 3 112 4 115 25 3 21 0 22 -85 25 l-88 3
-3 62 -3 62 73 3 c71 3 73 4 76 31 l3 27 -75 0 -76 0 0 60 0 60 85 0 c84 0 85
0 85 25 l0 25 -110 0 -110 0 0 -205z"/>
<path d="M620 408 c0 -159 8 -182 64 -186 25 -2 44 2 57 14 17 16 19 16 19 1
0 -10 8 -17 20 -17 20 0 20 5 18 158 -3 154 -3 157 -25 160 -23 3 -23 2 -23
-110 0 -125 -13 -162 -53 -156 -21 3 -22 9 -27 133 -5 125 -6 130 -27 133 -23
3 -23 3 -23 -130z"/>
<path d="M1139 450 c0 -49 -1 -108 -1 -130 0 -194 1 -200 22 -200 18 0 20 7
20 55 l0 55 30 -6 c82 -17 115 37 109 179 -4 74 -7 89 -28 111 -26 28 -59 33
-94 15 -16 -9 -22 -9 -25 0 -2 6 -10 11 -18 11 -11 0 -14 -19 -15 -90z m121
21 c5 -11 10 -52 10 -91 0 -79 -11 -110 -39 -110 -34 0 -46 29 -46 110 0 81
12 110 46 110 10 0 23 -9 29 -19z"/>
<path d="M1392 517 c-29 -31 -30 -77 -2 -77 13 0 24 10 30 26 8 20 16 25 38
22 23 -3 27 -8 30 -39 3 -35 2 -36 -38 -43 -59 -9 -90 -44 -90 -98 0 -60 22
-88 67 -88 20 0 44 7 53 15 15 14 18 14 30 0 18 -22 60 -20 60 4 0 10 -7 21
-15 25 -12 4 -15 27 -15 114 0 95 -3 113 -21 136 -28 35 -95 37 -127 3z m98
-185 c0 -40 -21 -65 -51 -60 -18 2 -25 10 -27 33 -4 33 18 55 55 55 19 0 23
-5 23 -28z"/>
<path d="M1604 527 c-2 -7 -3 -78 -2 -157 3 -142 4 -145 26 -148 22 -3 22 -2
22 108 0 118 9 150 40 150 16 0 20 7 20 30 0 35 -22 40 -52 13 -17 -15 -18
-15 -18 0 0 20 -28 23 -36 4z"/>
</g>
</svg>
